<svg width="32" height="32" viewBox="0 0 32 32" fill="none" xmlns="http://www.w3.org/2000/svg">
  <path d="M16 2.667C18.9467 2.667 19.3333 2.68 21.0667 2.7467C22.7467 2.8133 23.8 3.0667 24.6667 3.4C25.6 3.76 26.3333 4.2133 27.0667 4.9333C27.7867 5.6667 28.24 6.4 28.6 7.3333C28.9333 8.2 29.1867 9.2533 29.2533 10.9333C29.32 12.6667 29.3333 13.0533 29.3333 16C29.3333 18.9467 29.32 19.3333 29.2533 21.0667C29.1867 22.7467 28.9333 23.8 28.6 24.6667C28.24 25.6 27.7867 26.3333 27.0667 27.0667C26.3333 27.7867 25.6 28.24 24.6667 28.6C23.8 28.9333 22.7467 29.1867 21.0667 29.2533C19.3333 29.32 18.9467 29.3333 16 29.3333C13.0533 29.3333 12.6667 29.32 10.9333 29.2533C9.25333 29.1867 8.2 28.9333 7.33333 28.6C6.4 28.24 5.66667 27.7867 4.93333 27.0667C4.21333 26.3333 3.76 25.6 3.4 24.6667C3.06667 23.8 2.81333 22.7467 2.74667 21.0667C2.68 19.3333 2.66667 18.9467 2.66667 16C2.66667 13.0533 2.68 12.6667 2.74667 10.9333C2.81333 9.25333 3.06667 8.2 3.4 7.33333C3.76 6.4 4.21333 5.66667 4.93333 4.93333C5.66667 4.21333 6.4 3.76 7.33333 3.4C8.2 3.06667 9.25333 2.81333 10.9333 2.74667C12.6667 2.68 13.0533 2.66667 16 2.66667ZM16 4.66667C13.0667 4.66667 12.7067 4.68 10.9867 4.74667C9.33333 4.81333 8.66667 5.05333 8.06667 5.33333C7.46667 5.61333 6.93333 5.97333 6.4 6.50667C5.86667 7.04 5.50667 7.57333 5.22667 8.17333C4.94667 8.77333 4.70667 9.44 4.64 11.0933C4.57333 12.8133 4.56 13.1733 4.56 16.1067C4.56 19.04 4.57333 19.4 4.64 21.12C4.70667 22.7733 4.94667 23.44 5.22667 24.04C5.50667 24.64 5.86667 25.1733 6.4 25.7067C6.93333 26.24 7.46667 26.6 8.06667 26.88C8.66667 27.16 9.33333 27.4 10.9867 27.4667C12.7067 27.5333 13.0667 27.5467 16 27.5467C18.9333 27.5467 19.2933 27.5333 21.0133 27.4667C22.6667 27.4 23.3333 27.16 23.9333 26.88C24.5333 26.6 25.0667 26.24 25.6 25.7067C26.1333 25.1733 26.4933 24.64 26.7733 24.04C27.0533 23.44 27.2933 22.7733 27.36 21.12C27.4267 19.4 27.44 19.04 27.44 16.1067C27.44 13.1733 27.4267 12.8133 27.36 11.0933C27.2933 9.44 27.0533 8.77333 26.7733 8.17333C26.4933 7.57333 26.1333 7.04 25.6 6.50667C25.0667 5.97333 24.5333 5.61333 23.9333 5.33333C23.3333 5.05333 22.6667 4.81333 21.0133 4.74667C19.2933 4.68 18.9333 4.66667 16 4.66667Z" fill="url(#paint0_linear_0_1)"/>
  <path d="M16 8C11.6 8 8 11.6 8 16C8 20.4 11.6 24 16 24C20.4 24 24 20.4 24 16C24 11.6 20.4 8 16 8ZM16 22C12.7 22 10 19.3 10 16C10 12.7 12.7 10 16 10C19.3 10 22 12.7 22 16C22 19.3 19.3 22 16 22Z" fill="url(#paint1_linear_0_1)"/>
  <circle cx="24" cy="8" r="2" fill="url(#paint2_linear_0_1)"/>
  <defs>
    <linearGradient id="paint0_linear_0_1" x1="2.66667" y1="16" x2="29.3333" y2="16" gradientUnits="userSpaceOnUse">
      <stop stop-color="#FF0069"/>
      <stop offset="0.5" stop-color="#E4405F"/>
      <stop offset="1" stop-color="#C13584"/>
    </linearGradient>
    <linearGradient id="paint1_linear_0_1" x1="8" y1="16" x2="24" y2="16" gradientUnits="userSpaceOnUse">
      <stop stop-color="#FF0069"/>
      <stop offset="0.5" stop-color="#E4405F"/>
      <stop offset="1" stop-color="#C13584"/>
    </linearGradient>
    <linearGradient id="paint2_linear_0_1" x1="22" y1="8" x2="26" y2="8" gradientUnits="userSpaceOnUse">
      <stop stop-color="#FF0069"/>
      <stop offset="0.5" stop-color="#E4405F"/>
      <stop offset="1" stop-color="#C13584"/>
    </linearGradient>
  </defs>
</svg> 